<svg width="219" height="129" viewBox="0 0 219 129" fill="none" xmlns="http://www.w3.org/2000/svg">
<path d="M79.0547 64.8079H79.0549C79.6239 64.8079 80.1936 64.8201 80.7651 64.8325C83.2435 64.8859 85.7554 64.94 88.3949 63.9965C91.6494 62.8331 95.0895 60.1592 98.9389 54.1429C99.3158 53.5773 99.6658 53.0403 99.9982 52.5303C100.719 51.4247 101.356 50.4465 102.005 49.5813C102.95 48.3198 103.912 47.3074 105.172 46.5082C107.694 44.9086 111.431 44.1501 118.671 44.0071C129.723 43.9539 190.286 43.3897 198.728 43.3108C199.224 43.3062 199.604 43.7064 199.604 44.2111V64.4831C199.604 64.9789 199.229 65.3765 198.739 65.3826C189.994 65.4922 124.143 66.3111 101.717 66.4001C99.0777 66.4096 97.0354 66.5281 94.8048 67.8148C92.5795 69.0984 90.1759 71.5391 86.7897 76.1645L86.7896 76.1645L86.7872 76.1681C86.1078 77.1855 85.5022 78.1134 84.9496 78.9599C84.0762 80.2979 83.3354 81.4329 82.6455 82.3976C81.5204 83.9707 80.5398 85.0778 79.3575 85.859C76.9921 87.4217 73.7968 87.6965 66.9539 87.6965H66.8981H66.8414H66.7837H66.7252H66.6658H66.6055H66.5443H66.4822H66.4192H66.3554H66.2907H66.2252H66.1588H66.0915H66.0233H65.9543H65.8845H65.8138H65.7423H65.67H65.5968H65.5227H65.4479H65.3722H65.2957H65.2184H65.1403H65.0614H64.9817H64.9011H64.8198H64.7377H64.6548H64.5711H64.4866H64.4014H64.3153H64.2285H64.141H64.0526H63.9635H63.8737H63.7831H63.6917H63.5996H63.5068H63.4132H63.3188H63.2238H63.128H63.0315H62.9343H62.8363H62.7377H62.6383H62.5382H62.4375H62.336H62.2338H62.1309H62.0274H61.9231H61.8182H61.7126H61.6064H61.4994H61.3918H61.2835H61.1746H61.065H60.9548H60.8439H60.7324H60.6202H60.5074H60.3939H60.2799H60.1652H60.0499H59.9339H59.8173H59.7002H59.5824H59.464H59.345H59.2254H59.1053H58.9845H58.8631H58.7412H58.6187H58.4956H58.3719H58.2477H58.1229H57.9975H57.8716H57.7451H57.6181H57.4905H57.3624H57.2338H57.1046H56.9748H56.8446H56.7138H56.5825H56.4507H56.3184H56.1855H56.0522H55.9183H55.784H55.6491H55.5138H55.378H55.2416H55.1048H54.9676H54.8298H54.6916H54.5529H54.4138H54.2742H54.1341H53.9936H53.8526H53.7112H53.5693H53.427H53.2843H53.1411H52.9976H52.8535H52.7091H52.5643H52.419H52.2733H52.1273H51.9808H51.8339H51.6866H51.539H51.3909H51.2425H51.0937H50.9445H50.7949H50.645H50.4947H50.344H50.193H50.0416H49.8899H49.7379H49.5854H49.4327H49.2796H49.1262H48.9724H48.8183H48.6639H48.5092H48.3542H48.1988H48.0432H47.8872H47.7309H47.5744H47.4175H47.2604H47.103H46.9453H46.7873H46.629H46.4705H46.3117H46.1526H45.9933H45.8337H45.6739H45.5138H45.3535H45.1929H45.0321H44.871H44.7098H44.5482H44.3865H44.2246H44.0624H43.9H43.7374H43.5746H43.4116H43.2484H43.085H42.9214H42.7577H42.5937H42.4296H42.2653H42.1008H41.9361H41.7713H41.6063H41.4411H41.2758H41.1104H40.9448H40.779H40.6131H40.4471H40.281H40.1147H39.9483H39.7817H39.6151H39.4483H39.2814H39.1144H38.9473H38.7801H38.6128H38.4454H38.2779H38.1104H37.9427H37.775H37.6072H37.4393H37.2714H37.1034H36.9353H36.7672H36.599H36.4307H36.2625H36.0941H35.9258H35.7574H35.589H35.4205H35.252H35.0835H34.915H34.7465H34.5779H34.4094H34.2408H34.0722H33.9037H33.7351H33.5666H33.3981H33.2296H33.0611H32.8927H32.7243H32.5559H32.3875H32.2192H32.0509H31.8827H31.7146H31.5464H31.3784H31.2104H31.0425H30.8746H30.7068H30.5391H30.3715H30.204H30.0365H29.8691H29.7019H29.5347H29.3676H29.2007H29.0338H28.8671H28.7004H28.5339H28.3676H28.2013H28.0352H27.8692H27.7033H27.5376H27.3721H27.2067H27.0414H26.8763H26.7114H26.5466H26.382H26.2175H26.0533H25.8892H25.7253H25.5615H25.398H25.2347H25.0715H24.9086H24.7458H24.5833H24.421H24.2589H24.097H23.9353H23.7739H23.6127H23.4517H23.2909H23.1304H22.9702H22.8102H22.6504H22.4909H22.3316H22.1726H22.0139H21.8555H21.6973H21.5394H21.3817H21.2244H21.0673H20.9106H20.7541H20.5979H20.442H20.2865H20.1312H19.9763H19.8216H19.6673H19.5133H19.3597H19.2063H19.0533H18.9007H18.7484H18.5964H18.4448H18.2935H18.1426H17.992H17.8418H17.692H17.5425H17.3935H17.2448H17.0964H16.9485H16.8009H16.6538H16.507H16.3606H16.2147H16.0691H15.924H15.7793H15.6349H15.4911H15.3476H15.2045H15.0619H14.9198H14.778H14.6367H14.4959H14.3555H14.2156H14.0761H13.9371H13.7985H13.6604H13.5228H13.3857H13.249H13.1128H12.9771H12.8419H12.7072H12.573H12.4393H12.3061H12.1734H12.0412H11.9095H11.7784H11.6478H11.5177H11.3881H11.259H11.1305H11.0026H10.8752H10.7483H10.622H10.4962H10.371H10.2464H10.1223H9.99878H9.87585H9.7535H9.63172H9.51053H9.38993H9.26992H9.1505H9.03168H8.91347H8.79586H8.67886H8.56248H8.44671H8.33156H8.21703H8.10314H7.98987H7.87724H7.76525H7.6539H7.5432H7.43315H7.32374H7.215H7.10692H6.9995H6.89275H6.78666H6.68126H6.57653H6.47249H6.36913H6.26646H6.16448H6.0632H5.96262H5.86274H5.76358H5.66512H5.56738H5.47035H5.37405H5.27847H5.18362H5.08951H4.99613H4.90349H4.8116H4.72045H4.63006H4.54042H4.45154H4.36341H4.27606H4.18947H4.10366H4.01862H3.93437H3.85089H3.76821H3.68631H3.60521H3.52491H3.44541H3.36672H3.28883H3.21176H3.1355H3.06006H2.98545H2.91166H2.83871H2.76659H2.6953H2.62486H2.55526H2.48652H2.41862H2.35158H2.28541H2.22009H2.15564H2.09206H2.02936H1.96754H1.90659H1.84653H1.78736H1.72909H1.67171H1.61522H1.55965H1.50497H1.45121H1.39837H1.34644H1.29543H1.24535H1.1962H1.14797H1.10069H1.05434H1.00894H0.964485C0.472109 87.6965 0.1 87.2984 0.1 86.7965V65.8385C0.1 65.3375 0.469834 64.94 0.961096 64.9386C8.73965 64.9169 61.5643 64.7726 79.0547 64.8079Z" fill="white" stroke="white" stroke-width="0.2"/>
<path d="M64.4778 105.223H64.478C65.047 105.223 65.6167 105.235 66.1882 105.247C68.6665 105.301 71.1785 105.355 73.8179 104.411C77.0725 103.248 80.5126 100.574 84.362 94.5577C84.7388 93.9921 85.0889 93.4551 85.4213 92.9451C86.1419 91.8396 86.7795 90.8613 87.4277 89.9961C88.3729 88.7346 89.3346 87.7222 90.5947 86.923C93.1168 85.3234 96.854 84.5649 104.094 84.4219C115.213 84.3684 188.562 83.7976 197.981 83.7242C198.479 83.7203 198.875 84.1228 198.875 84.6243V104.896C198.875 105.389 198.479 105.791 197.985 105.796C188.266 105.899 109.681 106.725 87.1396 106.815C84.5008 106.824 82.4585 106.943 80.2279 108.23C78.0025 109.513 75.599 111.954 72.2128 116.579L72.2127 116.579L72.2103 116.583C71.5309 117.6 70.9252 118.528 70.3726 119.375C69.4992 120.713 68.7584 121.848 68.0685 122.812C66.9435 124.386 65.9628 125.493 64.7806 126.274C62.4152 127.837 59.2198 128.111 52.377 128.111H52.3222H52.2667H52.2107H52.154H52.0968H52.039H51.9805H51.9215H51.862H51.8018H51.7411H51.6797H51.6178H51.5554H51.4923H51.4287H51.3646H51.2999H51.2346H51.1688H51.1024H51.0354H50.9679H50.8999H50.8313H50.7622H50.6926H50.6224H50.5516H50.4804H50.4086H50.3363H50.2634H50.1901H50.1162H50.0418H49.9669H49.8915H49.8156H49.7391H49.6622H49.5848H49.5068H49.4284H49.3495H49.2701H49.1902H49.1098H49.0289H48.9475H48.8657H48.7834H48.7006H48.6173H48.5336H48.4494H48.3648H48.2796H48.1941H48.108H48.0215H47.9346H47.8472H47.7594H47.6711H47.5824H47.4932H47.4036H47.3136H47.2231H47.1322H47.0409H46.9492H46.857H46.7644H46.6714H46.578H46.4842H46.39H46.2953H46.2003H46.1048H46.009H45.9127H45.8161H45.7191H45.6217H45.5238H45.4257H45.3271H45.2281H45.1288H45.0291H44.929H44.8286H44.7278H44.6266H44.525H44.4231H44.3209H44.2183H44.1153H44.012H43.9083H43.8043H43.7H43.5953H43.4903H43.3849H43.2792H43.1732H43.0669H42.9602H42.8532H42.7459H42.6383H42.5303H42.4221H42.3135H42.2046H42.0954H41.9859H41.8762H41.7661H41.6557H41.545H41.4341H41.3228H41.2113H41.0995H40.9874H40.875H40.7624H40.6495H40.5363H40.4228H40.3091H40.1951H40.0809H39.9664H39.8516H39.7366H39.6214H39.5058H39.3901H39.2741H39.1579H39.0414H38.9247H38.8077H38.6906H38.5732H38.4555H38.3377H38.2196H38.1013H37.9828H37.8641H37.7452H37.6261H37.5067H37.3872H37.2674H37.1475H37.0274H36.907H36.7865H36.6658H36.5449H36.4238H36.3026H36.1812H36.0595H35.9378H35.8158H35.6937H35.5714H35.4489H35.3263H35.2036H35.0806H34.9576H34.8343H34.711H34.5874H34.4638H34.34H34.216H34.0919H33.9677H33.8434H33.7189H33.5943H33.4696H33.3447H33.2197H33.0947H32.9695H32.8442H32.7188H32.5932H32.4676H32.3419H32.2161H32.0901H31.9641H31.838H31.7118H31.5856H31.4592H31.3328H31.2062H31.0796H30.953H30.8262H30.6994H30.5725H30.4456H30.3186H30.1915H30.0644H29.9372H29.81H29.6827H29.5554H29.428H29.3006H29.1732H29.0457H28.9182H28.7907H28.6631H28.5355H28.4079H28.2802H28.1525H28.0249H27.8972H27.7695H27.6417H27.514H27.3863H27.2586H27.1308H27.0031H26.8754H26.7477H26.62H26.4923H26.3646H26.237H26.1093H25.9817H25.8541H25.7266H25.5991H25.4716H25.3441H25.2167H25.0893H24.962H24.8347H24.7074H24.5802H24.4531H24.326H24.199H24.072H23.9451H23.8183H23.6915H23.5648H23.4382H23.3117H23.1852H23.0588H22.9325H22.8063H22.6801H22.5541H22.4281H22.3023H22.1765H22.0509H21.9253H21.7999H21.6745H21.5493H21.4242H21.2992H21.1743H21.0495H20.9249H20.8003H20.676H20.5517H20.4276H20.3036H20.1797H20.056H19.9324H19.809H19.6857H19.5626H19.4396H19.3168H19.1941H19.0716H18.9492H18.8271H18.7051H18.5832H18.4615H18.34H18.2187H18.0976H17.9766H17.8559H17.7353H17.6149H17.4947H17.3747H17.2549H17.1352H17.0158H16.8966H16.7776H16.6588H16.5403H16.4219H16.3038H16.1858H16.0681H15.9507H15.8334H15.7164H15.5996H15.483H15.3667H15.2506H15.1348H15.0192H14.9039H14.7888H14.6739H14.5593H14.445H14.3309H14.2171H14.1036H13.9903H13.8773H13.7645H13.6521H13.5399H13.428H13.3163H13.205H13.0939H12.9832H12.8727H12.7625H12.6526H12.543H12.4337H12.3247H12.2161H12.1077H11.9997H11.8919H11.7845H11.6774H11.5706H11.4641H11.358H11.2522H11.1467H11.0416H10.9368H10.8323H10.7282H10.6244H10.521H10.4179H10.3152H10.2128H10.1108H10.0091H9.90778H9.80684H9.70627H9.60606H9.50623H9.40677H9.30769H9.20898H9.11066H9.01271H8.91516H8.81799H8.72122H8.62484H8.52885H8.43326H8.33807H8.24329H8.14891H8.05494H7.96139H7.86824H7.77551H7.6832H7.59131H7.49985H7.40881H7.3182H7.22801H7.13827H7.04895H6.96008H6.87165H6.78366H6.69611H6.60902H6.52237H6.43618H6.35044H6.26516H6.18034H6.09599H6.0121H5.92868H5.84573H5.76325H5.68125H5.59972H5.51868H5.43812H5.35804H5.27846H5.19936H5.12076H5.04265H4.96504H4.88793H4.81132H4.73522H4.65962H4.58454H4.50997H4.43591H4.36237H4.28936H4.21686H4.14489H4.07345H4.00254H3.93216H3.86231H3.79301H3.72424H3.65602H3.58834H3.52121H3.45463H3.3886H3.32312H3.25821H3.19385H3.13006H3.06683H3.00417H2.94208H2.88056H2.81962H2.75925H2.69947H2.64026H2.58164H2.52361H2.46617H2.40932H2.35307H2.29741H2.24235H2.1879H2.13405H2.0808H2.02817H1.97615H1.92474H1.87395H1.82378H1.77424H1.72531H1.67702H1.62935H1.58232H1.53592H1.49016H1.44503H1.40055H1.35672H1.31353H1.27099H1.2291H1.18787H1.14729H1.10737H1.06812H1.02953H0.991605C0.495646 128.111 0.1 127.709 0.1 127.211V106.252C0.1 105.754 0.482785 105.354 0.975779 105.353C7.68237 105.328 47.2126 105.188 64.4778 105.223Z" fill="white" stroke="white" stroke-width="0.2"/>
<path d="M98.0047 21.6062H98.0049C98.5739 21.6062 99.1436 21.6185 99.7151 21.6308C102.193 21.6842 104.705 21.7384 107.345 20.7948C110.599 19.6314 114.04 16.9576 117.889 10.9412C118.266 10.3757 118.616 9.83865 118.948 9.32868C119.669 8.22311 120.306 7.24483 120.955 6.37967C121.9 5.11811 122.862 4.10577 124.122 3.30657C126.644 1.70693 130.381 0.948443 137.621 0.805431C148.521 0.75295 191.647 0.203385 198.721 0.112646C199.219 0.106261 199.604 0.507532 199.604 1.013V21.2857C199.604 21.7815 199.241 22.1767 198.755 22.1848C191.378 22.3084 142.848 23.1104 120.667 23.1984C118.028 23.2079 115.985 23.3264 113.755 24.6131C111.529 25.8968 109.126 28.3375 105.74 32.9629L105.74 32.9628L105.737 32.9664C105.058 33.9838 104.452 34.9116 103.9 35.7581C103.026 37.0962 102.285 38.2312 101.595 39.1959C100.47 40.769 99.4898 41.8762 98.3075 42.6573C95.9421 44.2201 92.7468 44.4949 85.9039 44.4949H85.8473H85.7894H85.7301H85.6696H85.6078H85.5447H85.4804H85.4147H85.3479H85.2797H85.2103H85.1397H85.0678H84.9947H84.9203H84.8448H84.768H84.69H84.6107H84.5303H84.4487H84.3658H84.2818H84.1966H84.1102H84.0227H83.9339H83.844H83.753H83.6608H83.5674H83.4729H83.3773H83.2805H83.1826H83.0835H82.9834H82.8821H82.7798H82.6763H82.5717H82.466H82.3593H82.2514H82.1425H82.0325H81.9215H81.8093H81.6962H81.5819H81.4666H81.3503H81.233H81.1146H80.9951H80.8747H80.7533H80.6308H80.5073H80.3828H80.2574H80.1309H80.0034H79.875H79.7456H79.6152H79.4839H79.3516H79.2183H79.0841H78.949H78.8129H78.6759H78.5379H78.399H78.2592H78.1185H77.9769H77.8344H77.6909H77.5466H77.4014H77.2553H77.1084H76.9605H76.8118H76.6622H76.5118H76.3605H76.2084H76.0554H75.9016H75.747H75.5915H75.4352H75.2781H75.1202H74.9614H74.8019H74.6416H74.4805H74.3186H74.1559H73.9924H73.8282H73.6632H73.4974H73.3309H73.1637H72.9957H72.8269H72.6574H72.4872H72.3163H72.1446H71.9723H71.7992H71.6254H71.4509H71.2757H71.0999H70.9233H70.7461H70.5682H70.3896H70.2104H70.0305H69.85H69.6688H69.487H69.3045H69.1214H68.9376H68.7533H68.5683H68.3827H68.1966H68.0098H67.8224H67.6344H67.4458H67.2567H67.067H66.8767H66.6858H66.4944H66.3024H66.1099H65.9168H65.7232H65.5291H65.3344H65.1392H64.9435H64.7472H64.5505H64.3532H64.1555H63.9573H63.7585H63.5593H63.3596H63.1594H62.9588H62.7577H62.5561H62.3541H62.1517H61.9488H61.7454H61.5417H61.3375H61.1328H60.9278H60.7224H60.5165H60.3102H60.1036H59.8965H59.6891H59.4813H59.2731H59.0645H58.8556H58.6463H58.4366H58.2266H58.0163H57.8056H57.5946H57.3833H57.1716H56.9596H56.7473H56.5347H56.3217H56.1085H55.895H55.6812H55.4671H55.2527H55.0381H54.8232H54.608H54.3926H54.1769H53.9609H53.7447H53.5283H53.3117H53.0948H52.8777H52.6604H52.4428H52.2251H52.0072H51.789H51.5707H51.3522H51.1335H50.9146H50.6956H50.4764H50.257H50.0375H49.8178H49.5979H49.378H49.1579H48.9376H48.7173H48.4968H48.2762H48.0555H47.8347H47.6138H47.3928H47.1717H46.9505H46.7293H46.5079H46.2865H46.0651H45.8436H45.622H45.4004H45.1787H44.957H44.7353H44.5135H44.2917H44.0699H43.8481H43.6263H43.4044H43.1826H42.9608H42.739H42.5172H42.2954H42.0737H41.852H41.6303H41.4087H41.1871H40.9656H40.7442H40.5228H40.3014H40.0802H39.859H39.6379H39.4169H39.196H38.9752H38.7545H38.534H38.3135H38.0931H37.8729H37.6528H37.4329H37.213H36.9934H36.7739H36.5545H36.3353H36.1163H35.8974H35.6787H35.4602H35.2419H35.0238H34.8058H34.5881H34.3706H34.1533H33.9362H33.7194H33.5027H33.2863H33.0702H32.8542H32.6386H32.4231H32.208H31.9931H31.7785H31.5641H31.35H31.1363H30.9228H30.7096H30.4967H30.2841H30.0718H29.8598H29.6481H29.4368H29.2258H29.0152H28.8048H28.5949H28.3852H28.176H27.9671H27.7585H27.5504H27.3426H27.1352H26.9281H26.7215H26.5153H26.3095H26.104H25.899H25.6944H25.4903H25.2865H25.0832H24.8803H24.6779H24.4759H24.2744H24.0733H23.8727H23.6726H23.4729H23.2738H23.0751H22.8768H22.6791H22.4819H22.2852H22.089H21.8933H21.6982H21.5035H21.3094H21.1158H20.9228H20.7303H20.5384H20.347H20.1562H19.9659H19.7762H19.5871H19.3986H19.2107H19.0233H18.8366H18.6504H18.4649H18.28H18.0957H17.912H17.7289H17.5465H17.3647H17.1836H17.0031H16.8232H16.644H16.4655H16.2877H16.1105H15.934H15.7582H15.583H15.4086H15.2349H15.0618H14.8895H14.7179H14.547H14.3769H14.2074H14.0387H13.8708H13.7036H13.5371H13.3714H13.2065H13.0423H12.8789H12.7162H12.5544H12.3933H12.2331H12.0736H11.9149H11.7571H11.6H11.4438H11.2884H11.1338H10.98H10.8271H10.675H10.5238H10.3734H10.2239H10.0753H9.9275H9.78059H9.63456H9.48941H9.34516H9.20179H9.05933H8.91777H8.77712H8.63739H8.49857H8.36068H8.22372H8.08769H7.95261H7.81847H7.68528H7.55304H7.42177H7.29146H7.16212H7.03376H6.90638H6.77998H6.65458H6.53017H6.40677H6.28437H6.16298H6.04261H5.92327H5.80495H5.68766H5.57141H5.4562H5.34204H5.22893H5.11688H5.0059H4.89598H4.78713H4.67937H4.57268H4.46709H4.36259H4.25919H4.15689H4.0557H3.95563H3.85667H3.75884H3.66214H3.56658H3.47215H3.37887H3.28674H3.19576H3.10595H3.0173H2.92982H2.84351H2.75839H2.67446H2.59171H2.51016H2.42981H2.35067H2.27274H2.19603H2.12054H2.04627H1.97324H1.90145H1.83089H1.76159H1.69354H1.62674H1.56121H1.49695H1.43395H1.37224H1.31181H1.25267H1.19482H1.13827H1.08303H1.02909H0.976472C0.482504 44.4949 0.1 44.0951 0.1 43.5949V22.6375C0.1 22.1389 0.486375 21.7386 0.980348 21.7376C10.1107 21.7181 80.344 21.5706 98.0047 21.6062Z" fill="white" stroke="white" stroke-width="0.2"/>
<path d="M211.248 6.512H212.56L214.224 9H215.208L213.536 6.448C214.352 6.304 214.88 5.88 214.88 4.856C214.88 3.544 213.888 3.192 212.792 3.192H210.44V9H211.248V6.512ZM212.792 3.984C213.192 3.984 213.568 4.088 213.792 4.216C213.968 4.368 214.08 4.584 214.08 4.856C214.08 5.112 213.968 5.344 213.792 5.488C213.568 5.608 213.2 5.696 212.792 5.696H211.248V3.984H212.792Z" fill="white"/>
<circle cx="212.5" cy="6.5" r="5.9" stroke="white" stroke-width="1.2"/>
</svg>
