<svg xmlns="http://www.w3.org/2000/svg" width="48" height="48" viewBox="0 0 48 48"><path d="M45 15h-3v3c0 1.659-1.341 3-3 3s-3-1.341-3-3v-3h-3c-1.659 0-3-1.341-3-3s1.341-3 3-3h3V6c0-1.659 1.341-3 3-3s3 1.341 3 3v3h3c1.659 0 3 1.341 3 3s-1.341 3-3 3zM24 33c-3.312 0-6-2.688-6-6 0-.102.024-.195.03-.297.465.162.948.297 1.47.297 2.484 0 4.5-2.016 4.5-4.5 0-.522-.135-1.005-.297-1.47.102-.006.195-.03.297-.03 3.312 0 6 2.688 6 6s-2.688 6-6 6zm0-18c-6.627 0-12 5.373-12 12s5.373 12 12 12 12-5.373 12-12c0-.186-.048-.363-.057-.552.954.351 1.98.552 3.057.552 3.012 0 5.649-1.497 7.272-3.774C47.46 25.425 48 27 48 27s-6 18-24 18S0 27 0 27 6 9 24 9c.18 0 .336.03.513.033A8.895 8.895 0 0 0 24 12c0 1.077.201 2.103.552 3.057-.189-.009-.366-.057-.552-.057z"/></svg>